<svg width="52" height="53" viewBox="0 0 52 53" fill="none" xmlns="http://www.w3.org/2000/svg">
<path d="M47.9195 42.9371L47.9194 42.937L31.4066 26.0514L47.9194 9.16576L47.9195 9.16565C48.9615 8.10004 49.3579 6.5624 48.9825 5.12963L48.9825 5.12959C48.1705 2.03003 44.302 0.90406 42.0089 3.24928L42.0088 3.24938L25.5613 20.0732L9.11381 3.24938L9.11369 3.24925C8.06702 2.17883 6.52532 1.74927 5.07156 2.14763L5.07152 2.14764C1.95497 3.00169 0.993818 6.90615 3.20311 9.16565L3.20321 9.16576L19.7161 26.0514L3.20321 42.937L3.20311 42.9371C2.16118 44.0027 1.76476 45.5403 2.14011 46.9731L2.14012 46.9731C2.95219 50.0727 6.82061 51.1987 9.11371 48.8534L9.11381 48.8533L25.5613 32.0295L42.0088 48.8533L42.009 48.8535C43.0556 49.9239 44.5973 50.3534 46.0511 49.9551L46.0511 49.9551C49.1677 49.101 50.1288 45.1966 47.9195 42.9371Z" fill="#F2651F" stroke="#09284E" stroke-width="4"/>
</svg>
